<svg preserveAspectRatio="none" width="100%" height="100%" overflow="visible" style="display: block;" viewBox="0 0 45 45" fill="none" xmlns="http://www.w3.org/2000/svg">
<g id="Frame 33152">
<foreignObject x="-5.25" y="-5.25" width="55.5" height="55.5"><div xmlns="http://www.w3.org/1999/xhtml" style="backdrop-filter:blur(2.62px);clip-path:url(#bgblur_0_1_2125_clip_path);height:100%;width:100%"></div></foreignObject><circle id="Ellipse 447" data-figma-bg-blur-radius="5.25" cx="22.5" cy="22.5" r="22" fill="url(#paint0_linear_1_2125)" stroke="url(#paint1_linear_1_2125)"/>
<g id="add-sharp" clip-path="url(#clip1_1_2125)">
<path id="Vector" d="M25.0188 16.9633L25.2777 15.9973L23.3458 15.4797L23.087 16.4456L24.0529 16.7044L25.0188 16.9633ZM16.9633 19.9812L15.9973 19.7223L15.4797 21.6542L16.4456 21.913L16.7044 20.9471L16.9633 19.9812ZM24.0529 16.7044L23.087 16.4456L19.9812 28.0367L20.9471 28.2956L21.913 28.5544L25.0188 16.9633L24.0529 16.7044ZM28.2956 24.0529L28.5544 23.087L16.9633 19.9812L16.7044 20.9471L16.4456 21.913L28.0367 25.0188L28.2956 24.0529Z" fill="var(--stroke-0, white)"/>
</g>
</g>
<defs>
<clipPath id="bgblur_0_1_2125_clip_path" transform="translate(5.25 5.25)"><circle cx="22.5" cy="22.5" r="22"/>
</clipPath><linearGradient id="paint0_linear_1_2125" x1="22.5" y1="3.54833e-08" x2="-5.46488" y2="28.875" gradientUnits="userSpaceOnUse">
<stop stop-color="white" stop-opacity="0.5"/>
<stop offset="1" stop-color="white" stop-opacity="0"/>
</linearGradient>
<linearGradient id="paint1_linear_1_2125" x1="22.5" y1="0" x2="22.5" y2="45" gradientUnits="userSpaceOnUse">
<stop stop-color="white"/>
<stop offset="1" stop-color="white" stop-opacity="0"/>
</linearGradient>
<clipPath id="clip1_1_2125">
<rect width="12" height="12" fill="white" transform="translate(16.5 16.5)"/>
</clipPath>
</defs>
</svg>
