<svg preserveAspectRatio="none" width="100%" height="100%" overflow="visible" style="display: block;" viewBox="0 0 70 100" fill="none" xmlns="http://www.w3.org/2000/svg">
<g id="LOGO">
<g id="Vector">
<path d="M24.306 21.6766C24.306 22.6873 24.0955 23.5612 23.6744 24.2982C23.2532 25.0141 22.6742 25.6036 21.9372 26.0669C21.2002 26.5301 20.3369 26.8776 19.3473 27.1092C18.3787 27.3197 17.3469 27.425 16.252 27.425H5.22902V5.00003H18.2418C19.0209 5.00003 19.7263 5.16848 20.358 5.50538C20.9897 5.84228 21.5266 6.28446 21.9688 6.83193C22.411 7.35834 22.7479 7.96897 22.9795 8.66383C23.2322 9.33763 23.3585 10.0325 23.3585 10.7484C23.3585 11.8012 23.0848 12.8119 22.5373 13.7805C22.0109 14.7281 21.2108 15.444 20.1369 15.9283C21.4213 16.3073 22.432 16.9706 23.169 17.9181C23.927 18.8446 24.306 20.0974 24.306 21.6766ZM18.0523 20.4133C18.0523 19.8658 17.9049 19.4131 17.6101 19.0551C17.3153 18.6761 16.9363 18.4866 16.4731 18.4866H11.388V22.2452H16.252C16.7574 22.2452 17.1785 22.0872 17.5154 21.7714C17.8733 21.4555 18.0523 21.0028 18.0523 20.4133ZM11.388 10.2431V13.6858H15.5887C16.0099 13.6858 16.3889 13.57 16.7258 13.3383C17.0837 13.1067 17.2627 12.6435 17.2627 11.9486C17.2627 11.338 17.1153 10.9063 16.8205 10.6537C16.5257 10.3799 16.1783 10.2431 15.7782 10.2431H11.388Z" fill="var(--fill-0, white)"/>
<path d="M51.1976 70.3589V81.3819H45.0386V58.9569H49.8395L58.8411 70.3589V58.9569H65V81.3819H60.1044L51.1976 70.3589Z" fill="var(--fill-0, white)"/>
<path d="M5.22902 54.4034V31.9784H11.388V49.0341H21.5582V54.4034H5.22902Z" fill="var(--fill-0, white)"/>
<path d="M29.5163 31.9784H35.1383L42.9081 54.4034H36.6543L35.2962 50.0132H29.3267L28.0002 54.4034H21.7149L29.5163 31.9784ZM34.3171 45.9072L32.3273 38.9586L30.2427 45.9072H34.3171Z" fill="var(--fill-0, white)"/>
<path d="M63.8483 48.6551C63.8483 49.6658 63.6378 50.5396 63.2167 51.2766C62.7955 51.9925 62.2165 52.5821 61.4795 53.0453C60.7425 53.5085 59.8792 53.856 58.8896 54.0876C57.921 54.2982 56.8892 54.4034 55.7943 54.4034H44.7713V31.9784H57.7841C58.5632 31.9784 59.2686 32.1469 59.9003 32.4838C60.532 32.8207 61.0689 33.2629 61.5111 33.8103C61.9533 34.3368 62.2902 34.9474 62.5218 35.6422C62.7745 36.3161 62.9008 37.0109 62.9008 37.7268C62.9008 38.7796 62.6271 39.7903 62.0796 40.7589C61.5532 41.7065 60.7531 42.4224 59.6792 42.9067C60.9636 43.2857 61.9743 43.949 62.7113 44.8965C63.4693 45.823 63.8483 47.0758 63.8483 48.6551ZM57.5946 47.3917C57.5946 46.8442 57.4472 46.3915 57.1524 46.0335C56.8576 45.6545 56.4786 45.465 56.0154 45.465H50.9303V49.2236H55.7943C56.2997 49.2236 56.7208 49.0657 57.0577 48.7498C57.4156 48.434 57.5946 47.9813 57.5946 47.3917ZM50.9303 37.2215V40.6642H55.131C55.5522 40.6642 55.9312 40.5484 56.2681 40.3168C56.626 40.0851 56.805 39.6219 56.805 38.927C56.805 38.3164 56.6576 37.8847 56.3628 37.6321C56.068 37.3583 55.7206 37.2215 55.3205 37.2215H50.9303Z" fill="var(--fill-0, white)"/>
<path d="M5.00003 95.5291V89.9307H5.54486V95.5291H5.00003Z" fill="var(--fill-0, white)"/>
<path d="M8.93248 90.9493V95.5291H8.38765V89.9228H8.81404L12.5252 94.5894V89.9307H13.0701V95.5291H12.5963L8.93248 90.9493Z" fill="var(--fill-0, white)"/>
<path d="M16.4609 90.9493V95.5291H15.9161V89.9228H16.3425L20.0537 94.5894V89.9307H20.5985V95.5291H20.1247L16.4609 90.9493Z" fill="var(--fill-0, white)"/>
<path d="M25.7187 95.5686C25.3291 95.5686 24.9712 95.4896 24.6448 95.3317C24.3237 95.1685 24.0473 94.9553 23.8157 94.6921C23.5841 94.4236 23.4051 94.1183 23.2787 93.7761C23.1524 93.434 23.0892 93.0839 23.0892 92.726C23.0892 92.3522 23.155 91.9942 23.2866 91.6521C23.4235 91.3099 23.6104 91.0072 23.8473 90.744C24.0842 90.4808 24.3632 90.2729 24.6843 90.1202C25.0054 89.9623 25.3528 89.8833 25.7265 89.8833C26.1161 89.8833 26.4714 89.9676 26.7925 90.136C27.1189 90.2992 27.3953 90.515 27.6216 90.7835C27.8532 91.052 28.0322 91.3573 28.1586 91.6995C28.2849 92.0364 28.3481 92.3812 28.3481 92.7339C28.3481 93.1076 28.2796 93.4656 28.1428 93.8077C28.0112 94.1499 27.8269 94.4526 27.59 94.7158C27.3584 94.9737 27.082 95.1817 26.7609 95.3396C26.4398 95.4922 26.0924 95.5686 25.7187 95.5686ZM23.642 92.726C23.642 93.0313 23.692 93.3261 23.792 93.6103C23.892 93.8893 24.0341 94.1394 24.2184 94.3605C24.4026 94.5763 24.6211 94.75 24.8738 94.8816C25.1264 95.0079 25.4081 95.0711 25.7187 95.0711C26.0345 95.0711 26.3214 95.0027 26.5793 94.8658C26.8373 94.7289 27.0557 94.55 27.2347 94.3289C27.4137 94.1078 27.5506 93.8577 27.6453 93.5787C27.7453 93.2997 27.7953 93.0155 27.7953 92.726C27.7953 92.4206 27.7427 92.1285 27.6374 91.8495C27.5374 91.5652 27.3953 91.3152 27.211 91.0994C27.0268 90.8835 26.8083 90.7124 26.5556 90.5861C26.303 90.4545 26.024 90.3887 25.7187 90.3887C25.4028 90.3887 25.1159 90.4571 24.858 90.594C24.6 90.7256 24.3816 90.902 24.2026 91.123C24.0236 91.3441 23.8841 91.5942 23.7841 91.8732C23.6893 92.1522 23.642 92.4364 23.642 92.726Z" fill="var(--fill-0, white)"/>
<path d="M30.5943 89.9228L32.5999 94.8421L34.5897 89.9228H35.174L32.8368 95.5291H32.3551L30.0178 89.9228H30.5943Z" fill="var(--fill-0, white)"/>
<path d="M36.3748 95.5291L38.7199 89.9228H39.17L41.5152 95.5291H40.9229L40.1965 93.7761H37.6776L36.9591 95.5291H36.3748ZM38.9489 90.5703L37.7961 93.3418H40.0702L38.9489 90.5703Z" fill="var(--fill-0, white)"/>
<path d="M47.1721 90.4124H45.1744V95.5291H44.6217V90.4124H42.6239V89.9228H47.1721V90.4124Z" fill="var(--fill-0, white)"/>
<path d="M49.4561 95.5291V89.9307H50.001V95.5291H49.4561Z" fill="var(--fill-0, white)"/>
<path d="M55.1178 95.5686C54.7283 95.5686 54.3703 95.4896 54.044 95.3317C53.7228 95.1685 53.4465 94.9553 53.2149 94.6921C52.9832 94.4236 52.8043 94.1183 52.6779 93.7761C52.5516 93.434 52.4884 93.0839 52.4884 92.726C52.4884 92.3522 52.5542 91.9942 52.6858 91.6521C52.8227 91.3099 53.0096 91.0072 53.2464 90.744C53.4833 90.4808 53.7623 90.2729 54.0834 90.1202C54.4045 89.9623 54.752 89.8833 55.1257 89.8833C55.5153 89.8833 55.8706 89.9676 56.1917 90.136C56.5181 90.2992 56.7944 90.515 57.0208 90.7835C57.2524 91.052 57.4314 91.3573 57.5577 91.6995C57.6841 92.0364 57.7472 92.3812 57.7472 92.7339C57.7472 93.1076 57.6788 93.4656 57.5419 93.8077C57.4103 94.1499 57.2261 94.4526 56.9892 94.7158C56.7576 94.9737 56.4812 95.1817 56.1601 95.3396C55.839 95.4922 55.4916 95.5686 55.1178 95.5686ZM53.0411 92.726C53.0411 93.0313 53.0912 93.3261 53.1912 93.6103C53.2912 93.8893 53.4333 94.1394 53.6176 94.3605C53.8018 94.5763 54.0203 94.75 54.2729 94.8816C54.5256 95.0079 54.8072 95.0711 55.1178 95.0711C55.4337 95.0711 55.7206 95.0027 55.9785 94.8658C56.2364 94.7289 56.4549 94.55 56.6339 94.3289C56.8129 94.1078 56.9497 93.8577 57.0445 93.5787C57.1445 93.2997 57.1945 93.0155 57.1945 92.726C57.1945 92.4206 57.1419 92.1285 57.0366 91.8495C56.9366 91.5652 56.7944 91.3152 56.6102 91.0994C56.4259 90.8835 56.2075 90.7124 55.9548 90.5861C55.7021 90.4545 55.4231 90.3887 55.1178 90.3887C54.802 90.3887 54.5151 90.4571 54.2571 90.594C53.9992 90.7256 53.7807 90.902 53.6018 91.123C53.4228 91.3441 53.2833 91.5942 53.1833 91.8732C53.0885 92.1522 53.0411 92.4364 53.0411 92.726Z" fill="var(--fill-0, white)"/>
<path d="M60.7782 90.9493V95.5291H60.2334V89.9228H60.6598L64.371 94.5894V89.9307H64.9158V95.5291H64.442L60.7782 90.9493Z" fill="var(--fill-0, white)"/>
</g>
</g>
</svg>
