<svg preserveAspectRatio="none" width="100%" height="100%" overflow="visible" style="display: block;" viewBox="0 0 15.9402 15.9402" fill="none" xmlns="http://www.w3.org/2000/svg">
<g id="Group">
<path id="Vector" d="M7.97009 4.06826C5.82501 4.06826 4.06826 5.82501 4.06826 7.97009C4.06826 10.1152 5.82501 11.8719 7.97009 11.8719C10.1152 11.8719 11.8534 10.1152 11.8534 7.97009C11.8534 5.82501 10.0967 4.06826 7.97009 4.06826ZM7.97009 10.9473C6.3243 10.9473 4.99287 9.61589 4.99287 7.97009C4.99287 6.3243 6.3243 4.99287 7.97009 4.99287C9.5974 4.99287 10.9288 6.3243 10.9288 7.97009C10.9288 9.61589 9.5974 10.9473 7.97009 10.9473Z" fill="var(--fill-0, white)"/>
<path id="Vector_2" d="M12.3157 1.8677C11.9089 1.8677 11.5391 2.01564 11.2617 2.29302C10.9843 2.5704 10.8364 2.94024 10.8364 3.34707C10.8364 3.7539 10.9843 4.12374 11.2617 4.40112C11.5391 4.6785 11.9089 4.82644 12.3157 4.82644C12.7226 4.82644 13.0924 4.6785 13.3698 4.40112C13.6287 4.14223 13.7951 3.77239 13.8136 3.36556V3.34707C13.8136 2.95874 13.6472 2.58889 13.3883 2.33C13.1109 2.03413 12.7226 1.8677 12.3157 1.8677ZM12.7041 3.7354C12.5007 3.93882 12.1123 3.93882 11.9089 3.7354C11.798 3.62445 11.7425 3.49501 11.7425 3.34707C11.7425 3.19913 11.798 3.0512 11.9089 2.95874C12.0199 2.84778 12.1493 2.79231 12.2972 2.79231C12.4452 2.79231 12.5931 2.84778 12.7041 2.95874C12.7965 3.0512 12.8705 3.19913 12.8705 3.32858C12.8705 3.49501 12.815 3.64294 12.7041 3.7354Z" fill="var(--fill-0, white)"/>
<path id="Vector_3" d="M11.2062 0H4.71549C2.1081 0 0 2.1081 0 4.71549V11.2247C0 13.8321 2.1081 15.9402 4.71549 15.9402H11.2247C13.8321 15.9402 15.9402 13.8321 15.9402 11.2247V4.71549C15.9217 2.1081 13.8136 0 11.2062 0ZM14.9971 11.2247C14.9971 13.3143 13.2958 15.0156 11.2062 15.0156H4.71549C2.62588 15.0156 0.924605 13.3143 0.924605 11.2247V4.71549C0.924605 2.62588 2.62588 0.924605 4.71549 0.924605H11.2247C13.3143 0.924605 15.0156 2.62588 15.0156 4.71549V11.2247H14.9971Z" fill="var(--fill-0, white)"/>
</g>
</svg>
