<svg preserveAspectRatio="none" width="100%" height="100%" overflow="visible" style="display: block;" viewBox="0 0 60 60" fill="none" xmlns="http://www.w3.org/2000/svg">
<g id="Frame 33148">
<foreignObject x="-7" y="-7" width="74" height="74"><div xmlns="http://www.w3.org/1999/xhtml" style="backdrop-filter:blur(3.5px);clip-path:url(#bgblur_0_1_2135_clip_path);height:100%;width:100%"></div></foreignObject><circle id="Ellipse 447" data-figma-bg-blur-radius="7" cx="30" cy="30" r="29.5" fill="url(#paint0_linear_1_2135)" stroke="url(#paint1_linear_1_2135)"/>
<g id="add-sharp" clip-path="url(#clip1_1_2135)">
<path id="Vector" d="M34.621 23.4L35.021 22.7072L33.6354 21.9072L33.2354 22.6L33.9282 23L34.621 23.4ZM23.4 25.2354L22.7072 24.8354L21.9072 26.221L22.6 26.621L23 25.9282L23.4 25.2354ZM33.9282 23L33.2354 22.6L25.2354 36.4564L25.9282 36.8564L26.621 37.2564L34.621 23.4L33.9282 23ZM36.8564 33.9282L37.2564 33.2354L23.4 25.2354L23 25.9282L22.6 26.621L36.4564 34.621L36.8564 33.9282Z" fill="var(--stroke-0, white)"/>
</g>
</g>
<defs>
<clipPath id="bgblur_0_1_2135_clip_path" transform="translate(7 7)"><circle cx="30" cy="30" r="29.5"/>
</clipPath><linearGradient id="paint0_linear_1_2135" x1="30" y1="4.7311e-08" x2="-7.2865" y2="38.5" gradientUnits="userSpaceOnUse">
<stop stop-color="white" stop-opacity="0.5"/>
<stop offset="1" stop-color="white" stop-opacity="0"/>
</linearGradient>
<linearGradient id="paint1_linear_1_2135" x1="30" y1="0" x2="30" y2="60" gradientUnits="userSpaceOnUse">
<stop stop-color="white"/>
<stop offset="1" stop-color="white" stop-opacity="0"/>
</linearGradient>
<clipPath id="clip1_1_2135">
<rect width="16" height="16" fill="white" transform="translate(27 19) rotate(30)"/>
</clipPath>
</defs>
</svg>
