<svg preserveAspectRatio="none" width="100%" height="100%" overflow="visible" style="display: block;" viewBox="0 0 15 20" fill="none" xmlns="http://www.w3.org/2000/svg">
<g id="click_tap_single_hand_gesture_icon_218647 1" clip-path="url(#clip0_1_2172)">
<path id="XMLID_3868_" d="M6.0802 0C6.78529 0 7.35446 0.558333 7.35446 1.25V8.75C7.35446 8.05833 7.92363 7.5 8.62872 7.5C9.33381 7.5 9.90297 8.05833 9.90297 8.75V9.16667C9.90297 8.475 10.4721 7.91667 11.1772 7.91667C11.8823 7.91667 12.4515 8.475 12.4515 9.16667V10C12.4515 9.30833 13.0207 8.75 13.7257 8.75C14.4308 8.75 15 9.30833 15 10V15.4917C15 15.825 14.932 16.325 14.8386 16.8667C14.5243 18.675 12.9187 20 11.0498 20H7.60082C6.53044 20 5.5705 19.5 4.78046 18.7917C4.77197 18.7917 4.77197 18.7833 4.77197 18.7833L3.09844 17.325C2.50379 16.8 2.04506 16.15 1.75623 15.4167L0.0487238 10.7917C-0.0956919 10.4 0.091199 9.96667 0.473476 9.79167C0.677357 9.7 0.881238 9.65833 1.09361 9.65833C1.6288 9.65833 2.147 9.95083 2.41035 10.45L3.97343 13.95C4.50013 13.5667 4.80595 12.9583 4.80595 12.325V1.25C4.80595 0.229167 5.60235 -2.48821e-06 6.0802 0Z" fill="var(--fill-0, white)"/>
</g>
<defs>
<clipPath id="clip0_1_2172">
<rect width="15" height="20" fill="white"/>
</clipPath>
</defs>
</svg>
