<svg preserveAspectRatio="none" width="100%" height="100%" overflow="visible" style="display: block;" viewBox="0 0 63.3051 65" fill="none" xmlns="http://www.w3.org/2000/svg">
<g id="LOGO">
<g id="Vector">
<path d="M16.2973 14.0777C16.2973 14.9309 16.1196 15.6685 15.7641 16.2906C15.4086 16.895 14.9198 17.3927 14.2977 17.7837C13.6756 18.1748 12.9468 18.468 12.1114 18.6636C11.2937 18.8413 10.4228 18.9302 9.49848 18.9302H0.193359V0H11.1782C11.8359 0 12.4313 0.142199 12.9646 0.426597C13.4978 0.710993 13.9511 1.08426 14.3243 1.54641C14.6976 1.99078 14.982 2.50625 15.1775 3.09282C15.3908 3.66161 15.4975 4.24818 15.4975 4.85253C15.4975 5.74127 15.2664 6.59446 14.8043 7.4121C14.3599 8.21197 13.6844 8.81631 12.7779 9.22513C13.8622 9.54508 14.7154 10.105 15.3375 10.9049C15.9774 11.6869 16.2973 12.7445 16.2973 14.0777ZM11.0182 13.0112C11.0182 12.549 10.8938 12.1669 10.645 11.8647C10.3961 11.5447 10.0762 11.3848 9.68511 11.3848H5.39249V14.5576H9.49848C9.92507 14.5576 10.2806 14.4243 10.565 14.1576C10.8671 13.891 11.0182 13.5089 11.0182 13.0112ZM5.39249 4.42593V7.33211H8.93857C9.29407 7.33211 9.61401 7.23435 9.89841 7.03883C10.2006 6.84331 10.3517 6.45226 10.3517 5.86569C10.3517 5.35022 10.2272 4.98584 9.9784 4.77254C9.72955 4.54147 9.43627 4.42593 9.09854 4.42593H5.39249Z" fill="var(--fill-0, white)"/>
<path d="M38.998 55.1731V64.4782H33.7989V45.548H37.8515L45.4503 55.1731V45.548H50.6494V64.4782H46.5168L38.998 55.1731Z" fill="var(--fill-0, white)"/>
<path d="M0.193359 41.7042V22.774H5.39249V37.1716H13.9777V41.7042H0.193359Z" fill="var(--fill-0, white)"/>
<path d="M20.6956 22.774H25.4414L32.0004 41.7042H26.7212L25.5748 37.9981H20.5356L19.4158 41.7042H14.11L20.6956 22.774ZM24.7482 34.532L23.0685 28.6663L21.3088 34.532H24.7482Z" fill="var(--fill-0, white)"/>
<path d="M49.6772 36.8517C49.6772 37.7048 49.4995 38.4425 49.144 39.0646C48.7885 39.669 48.2997 40.1667 47.6775 40.5577C47.0554 40.9487 46.3267 41.242 45.4912 41.4376C44.6736 41.6153 43.8026 41.7042 42.8783 41.7042H33.5732V22.774H44.5581C45.2157 22.774 45.8112 22.9162 46.3444 23.2006C46.8777 23.485 47.3309 23.8583 47.7042 24.3204C48.0775 24.7648 48.3619 25.2802 48.5574 25.8668C48.7707 26.4356 48.8773 27.0222 48.8773 27.6265C48.8773 28.5153 48.6463 29.3685 48.1841 30.1861C47.7398 30.986 47.0643 31.5903 46.1578 31.9991C47.2421 32.3191 48.0952 32.879 48.7174 33.6788C49.3573 34.4609 49.6772 35.5185 49.6772 36.8517ZM44.3981 35.7852C44.3981 35.323 44.2737 34.9409 44.0248 34.6387C43.776 34.3187 43.456 34.1588 43.065 34.1588H38.7724V37.3316H42.8783C43.3049 37.3316 43.6604 37.1983 43.9448 36.9316C44.247 36.665 44.3981 36.2829 44.3981 35.7852ZM38.7724 27.1999V30.1061H42.3184C42.6739 30.1061 42.9939 30.0083 43.2783 29.8128C43.5804 29.6173 43.7315 29.2263 43.7315 28.6397C43.7315 28.1242 43.6071 27.7598 43.3583 27.5465C43.1094 27.3155 42.8161 27.1999 42.4784 27.1999H38.7724Z" fill="var(--fill-0, white)"/>
</g>
<g id="Vector_2">
<path d="M63.2625 64.4091H57.2443V63.8234H63.2625V64.4091Z" fill="var(--fill-0, white)"/>
<path d="M58.3393 60.1818H63.2625V60.7674H57.2358V60.3091L62.2524 56.3196H57.2443V55.7339H63.2625V56.2432L58.3393 60.1818Z" fill="var(--fill-0, white)"/>
<path d="M58.3393 52.0887H63.2625V52.6744H57.2358V52.216L62.2524 48.2265H57.2443V47.6408H63.2625V48.1501L58.3393 52.0887Z" fill="var(--fill-0, white)"/>
<path d="M63.3049 42.1367C63.3049 42.5555 63.2201 42.9403 63.0503 43.2911C62.8749 43.6363 62.6457 43.9334 62.3627 44.1824C62.0741 44.4314 61.7459 44.6238 61.3781 44.7596C61.0103 44.8954 60.634 44.9633 60.2492 44.9633C59.8474 44.9633 59.4626 44.8926 59.0947 44.7511C58.7269 44.604 58.4015 44.4031 58.1186 44.1485C57.8356 43.8938 57.6121 43.5939 57.448 43.2487C57.2782 42.9035 57.1934 42.53 57.1934 42.1282C57.1934 41.7095 57.2839 41.3275 57.465 40.9823C57.6404 40.6315 57.8724 40.3344 58.161 40.0911C58.4496 39.8421 58.7778 39.6497 59.1457 39.5138C59.5078 39.378 59.8785 39.3101 60.2576 39.3101C60.6594 39.3101 61.0442 39.3837 61.4121 39.5308C61.7799 39.6723 62.1053 39.8704 62.3882 40.125C62.6655 40.374 62.889 40.6711 63.0588 41.0163C63.2229 41.3615 63.3049 41.7349 63.3049 42.1367ZM60.2492 44.3691C60.5774 44.3691 60.8943 44.3154 61.1998 44.2079C61.4998 44.1004 61.7686 43.9476 62.0062 43.7495C62.2383 43.5514 62.425 43.3166 62.5665 43.045C62.7023 42.7733 62.7702 42.4706 62.7702 42.1367C62.7702 41.7972 62.6966 41.4888 62.5495 41.2115C62.4024 40.9342 62.21 40.6994 61.9723 40.507C61.7346 40.3146 61.4658 40.1674 61.1659 40.0656C60.866 39.9581 60.5604 39.9043 60.2492 39.9043C59.9209 39.9043 59.6069 39.9609 59.307 40.0741C59.0014 40.1816 58.7326 40.3344 58.5006 40.5324C58.2686 40.7305 58.0846 40.9653 57.9488 41.237C57.8074 41.5086 57.7366 41.8085 57.7366 42.1367C57.7366 42.4763 57.8102 42.7847 57.9573 43.0619C58.0988 43.3392 58.2884 43.5741 58.526 43.7665C58.7637 43.9589 59.0325 44.1088 59.3324 44.2164C59.6323 44.3182 59.9379 44.3691 60.2492 44.3691Z" fill="var(--fill-0, white)"/>
<path d="M57.2358 36.8955L62.524 34.7395L57.2358 32.6004V31.9723L63.2625 34.4848V35.0026L57.2358 37.5151V36.8955Z" fill="var(--fill-0, white)"/>
<path d="M63.2625 30.6815L57.2358 28.1604V27.6766L63.2625 25.1556V25.7922L61.3781 26.5731V29.2809L63.2625 30.0533V30.6815ZM57.9318 27.9143L60.9112 29.1536V26.7089L57.9318 27.9143Z" fill="var(--fill-0, white)"/>
<path d="M57.7621 19.0744V21.2219H63.2625V21.8161H57.7621V23.9636H57.2358V19.0744H57.7621Z" fill="var(--fill-0, white)"/>
<path d="M63.2625 16.6191H57.2443V16.0334H63.2625V16.6191Z" fill="var(--fill-0, white)"/>
<path d="M63.3049 10.5328C63.3049 10.9515 63.2201 11.3364 63.0503 11.6872C62.8749 12.0324 62.6457 12.3295 62.3627 12.5785C62.0741 12.8275 61.7459 13.0199 61.3781 13.1557C61.0103 13.2915 60.634 13.3594 60.2492 13.3594C59.8474 13.3594 59.4626 13.2887 59.0947 13.1472C58.7269 13.0001 58.4015 12.7992 58.1186 12.5445C57.8356 12.2899 57.6121 11.99 57.448 11.6448C57.2782 11.2996 57.1934 10.9261 57.1934 10.5243C57.1934 10.1055 57.2839 9.72358 57.465 9.37839C57.6404 9.02754 57.8724 8.73045 58.161 8.48712C58.4496 8.23813 58.7778 8.04573 59.1457 7.90991C59.5078 7.7741 59.8785 7.70619 60.2576 7.70619C60.6594 7.70619 61.0442 7.77976 61.4121 7.92689C61.7799 8.06836 62.1053 8.26642 62.3882 8.52107C62.6655 8.77006 62.889 9.06715 63.0588 9.41234C63.2229 9.75753 63.3049 10.131 63.3049 10.5328ZM60.2492 12.7652C60.5774 12.7652 60.8943 12.7115 61.1998 12.6039C61.4998 12.4964 61.7686 12.3436 62.0062 12.1456C62.2383 11.9475 62.425 11.7127 62.5665 11.441C62.7023 11.1694 62.7702 10.8667 62.7702 10.5328C62.7702 10.1933 62.6966 9.88486 62.5495 9.60757C62.4024 9.33029 62.21 9.09545 61.9723 8.90304C61.7346 8.71064 61.4658 8.56351 61.1659 8.46165C60.866 8.35413 60.5604 8.30038 60.2492 8.30038C59.9209 8.30038 59.6069 8.35696 59.307 8.47014C59.0014 8.57766 58.7326 8.73045 58.5006 8.92851C58.2686 9.12657 58.0846 9.36141 57.9488 9.63304C57.8074 9.90466 57.7366 10.2046 57.7366 10.5328C57.7366 10.8723 57.8102 11.1807 57.9573 11.458C58.0988 11.7353 58.2884 11.9701 58.526 12.1625C58.7637 12.3549 59.0325 12.5049 59.3324 12.6124C59.6323 12.7143 59.9379 12.7652 60.2492 12.7652Z" fill="var(--fill-0, white)"/>
<path d="M58.3393 4.44788H63.2625V5.03358H57.2358V4.57521L62.2524 0.585719H57.2443V2.75898e-05H63.2625V0.509321L58.3393 4.44788Z" fill="var(--fill-0, white)"/>
</g>
</g>
</svg>
