<svg width="56" height="64" viewBox="0 0 650 744" fill="none" xmlns="http://www.w3.org/2000/svg">
<path d="M200.599 36.4383H448.188C448.139 235.628 448.139 434.822 448.188 634.02H192.565V36.4383H200.599ZM432.082 52.5098H208.659V617.936H432.094L432.082 52.5098Z" fill="white"/>
<path d="M30.2125 134.877H113.388C117.574 134.877 121.159 136.367 124.142 139.346C127.044 142.316 128.49 145.855 128.482 149.963V157.596C128.482 161.736 127.035 165.275 124.142 168.213C121.159 171.192 117.574 172.682 113.388 172.682H30.2125V134.877ZM30.2125 66.9871H113.388C117.574 66.9871 121.159 68.4319 124.142 71.3216C127.044 74.3411 128.49 77.9247 128.482 82.0724V89.6212C128.482 93.7608 127.035 97.2917 124.142 100.214C121.155 103.185 117.57 104.719 113.388 104.719H30.2125V66.9871ZM158.817 149.963C158.833 138.461 154.94 128.404 147.136 119.792C154.931 111.228 158.825 101.172 158.817 89.6212V82.0724C158.825 69.5967 154.379 58.9066 145.478 50.0023C136.619 41.1224 125.922 36.6866 113.388 36.6947H0V202.853H113.388C125.922 202.853 136.619 198.413 145.478 189.533C154.379 180.742 158.825 170.097 158.817 157.596V149.963ZM0.097537 252.845V418.99H158.902V388.832H30.2978V252.833L0.097537 252.845Z" fill="white"/>
<path d="M271.165 335.252V297.52C271.165 293.381 272.657 289.801 275.64 286.782C278.55 283.884 282.093 282.435 286.271 282.435H354.341C358.527 282.435 362.111 283.884 365.094 286.782C367.996 289.801 369.447 293.381 369.447 297.52V335.252H271.165ZM369.435 418.313H399.769V297.533C399.777 285.057 395.335 274.367 386.443 265.463C377.575 256.583 366.875 252.147 354.341 252.155H286.271C273.754 252.147 263.094 256.583 254.291 265.463C245.399 274.367 240.957 285.053 240.965 297.52V418.301H271.165V365.423H369.435V418.313Z" fill="white"/>
<path d="M516.971 350.309H600.135C604.329 350.309 607.914 351.798 610.889 354.777C613.79 357.748 615.241 361.287 615.241 365.394V373.028C615.241 377.168 613.79 380.711 610.889 383.657C607.914 386.628 604.329 388.113 600.135 388.113H516.971V350.309ZM516.971 282.419H600.135C604.329 282.419 607.914 283.868 610.889 286.765C613.79 289.769 615.241 293.348 615.241 297.504V305.053C615.241 309.209 613.79 312.74 610.889 315.645C607.914 318.616 604.329 320.15 600.135 320.15H516.971V282.419ZM645.576 365.394C645.584 353.892 641.686 343.836 633.883 335.223C641.686 326.652 645.584 316.599 645.576 305.065V297.504C645.576 285.028 641.13 274.342 632.237 265.446C623.369 256.558 612.669 252.118 600.135 252.126H486.759V418.284H600.147C612.665 418.292 623.361 413.856 632.237 404.976C641.13 396.178 645.572 385.528 645.563 373.028L645.576 365.394ZM614.181 633.485H644.515V512.705C644.515 500.229 640.069 489.543 631.177 480.647C622.317 471.767 611.616 467.331 599.074 467.339H485.698V633.485H515.911V497.619H599.074C603.268 497.619 606.857 499.068 609.84 501.966C612.734 504.985 614.181 508.565 614.181 512.705V633.485Z" fill="white"/>
<path d="M487.073 0.0001297V16.1447H547.547C549.782 16.1447 551.693 16.9158 553.278 18.458C554.83 20.0814 555.602 21.993 555.594 24.1927V28.2228C555.602 30.4387 554.83 32.3218 553.278 33.8721C551.693 35.463 549.782 36.2625 547.547 36.2706H487.073V52.3544H547.547C549.782 52.3544 551.693 53.1498 553.278 54.7407C554.83 56.3235 555.602 58.2108 555.594 60.4023V64.4811C555.602 66.6889 554.83 68.5761 553.278 70.1427C551.693 71.7255 549.782 72.5169 547.547 72.5169H487.073V88.6128H547.547C554.237 88.6128 559.943 86.2467 564.665 81.5145C569.412 76.8229 571.785 71.1411 571.785 64.4689V60.4023C571.785 54.2659 569.709 48.9047 565.555 44.3186C569.709 39.7488 571.781 34.3835 571.773 28.2228V24.2048C571.781 17.5408 569.412 11.8387 564.665 7.0984C559.943 2.35811 554.237 -0.00798798 547.547 0.0001297H487.073Z" fill="white"/>
<path d="M0.553711 744H11.6731V682.843H0.553711V744ZM76.6945 744H87.8627V699.535C87.8627 694.941 86.2248 691.009 82.9492 687.737C79.6979 684.474 75.7598 682.843 71.1348 682.843H29.4007V744H40.52V693.983H71.1348C72.6792 693.983 74 694.519 75.0973 695.591C76.154 696.694 76.6823 698.013 76.6823 699.548L76.6945 744ZM152.884 744H164.04V699.535C164.04 694.941 162.406 691.009 159.139 687.737C155.871 684.474 151.929 682.843 147.312 682.843H105.59V744H116.71V693.983H147.312C148.865 693.983 150.186 694.519 151.275 695.591C152.348 696.694 152.884 698.013 152.884 699.548V744ZM192.887 699.535C192.887 698.009 193.436 696.694 194.533 695.591C195.614 694.519 196.919 693.983 198.447 693.983H223.514C225.05 693.983 226.367 694.519 227.464 695.591C228.537 696.694 229.07 698.013 229.062 699.548V727.344C229.062 728.862 228.533 730.165 227.477 731.252C226.371 732.348 225.05 732.896 223.514 732.896H198.447C196.919 732.896 195.618 732.348 194.545 731.252C193.44 730.165 192.887 728.866 192.887 727.356V699.535ZM223.514 744C228.123 744 232.061 742.368 235.328 739.105C238.596 735.859 240.23 731.938 240.23 727.344V699.535C240.23 694.941 238.596 691.009 235.328 687.737C232.061 684.474 228.119 682.843 223.502 682.843H198.447C193.838 682.843 189.916 684.474 186.681 687.737C183.405 691.017 181.768 694.953 181.768 699.548V727.344C181.768 731.946 183.405 735.867 186.681 739.105C189.916 742.368 193.838 744 198.447 744H223.514ZM305.251 682.843V716.934L291.584 732.896H282.805L269.077 716.946V682.843H257.957V721.049L277.672 744H296.692L316.419 721.049V682.843H305.251ZM345.266 713.428V699.548C345.266 698.013 345.815 696.694 346.912 695.591C347.985 694.519 349.286 693.983 350.814 693.983H375.881C377.425 693.983 378.742 694.519 379.831 695.591C380.904 696.694 381.441 698.013 381.441 699.548V713.428H345.266ZM381.441 744H392.609V699.535C392.609 694.941 390.971 691.009 387.695 687.737C384.436 684.474 380.494 682.843 375.869 682.843H350.826C346.217 682.843 342.291 684.474 339.048 687.737C335.781 691.017 334.147 694.953 334.147 699.548V744H345.266V724.532H381.441V744ZM410.336 682.843V693.983H434.014V744H445.121V693.983H468.786V682.843H410.336ZM486.514 744H497.633V682.843H486.514V744ZM526.48 699.535C526.48 698.009 527.029 696.694 528.126 695.591C529.207 694.519 530.512 693.983 532.04 693.983H557.095C558.639 693.983 559.96 694.519 561.057 695.591C562.114 696.694 562.642 698.013 562.642 699.548V727.344C562.642 728.862 562.114 730.165 561.057 731.252C559.96 732.348 558.639 732.896 557.095 732.896H532.04C530.504 732.896 529.199 732.348 528.126 731.252C527.029 730.165 526.48 728.866 526.48 727.356V699.535ZM557.095 744C561.704 744 565.646 742.368 568.921 739.105C572.189 735.859 573.823 731.938 573.823 727.344V699.535C573.823 694.941 572.185 691.009 568.909 687.737C565.658 684.474 561.72 682.843 557.095 682.843H532.04C527.431 682.843 523.505 684.474 520.262 687.737C516.995 691.017 515.361 694.953 515.361 699.548V727.344C515.361 731.946 516.995 735.867 520.262 739.105C523.513 742.368 527.439 744 532.04 744H557.095ZM638.844 744H650V699.535C650 694.941 648.366 691.009 645.099 687.737C641.831 684.474 637.889 682.843 633.272 682.843H591.562V744H602.682V693.983H633.284C634.837 693.983 636.158 694.519 637.247 695.591C638.32 696.694 638.856 698.013 638.856 699.548L638.844 744Z" fill="white"/>
</svg>
