<svg width="1304" height="123" viewBox="0 0 1304 123" fill="none" xmlns="http://www.w3.org/2000/svg">
<g opacity="0.4">
<path d="M12.5848 105.228H53.4854C59.2534 105.228 63.8154 103.494 67.1713 100.024C70.6322 96.5551 72.3626 91.9821 72.3626 86.3053C72.3626 80.5233 70.6322 75.9503 67.1713 72.5862C63.8154 69.117 59.2534 67.3824 53.4854 67.3824H12.5848V105.228ZM12.5848 18.4984V55.5557H49.238C54.7963 55.5557 59.2534 53.8736 62.6093 50.5096C65.9653 47.1455 67.6433 42.6251 67.6433 36.9482C67.6433 31.3765 65.9653 26.9086 62.6093 23.5445C59.2534 20.1805 54.7963 18.4984 49.238 18.4984H12.5848ZM80.2281 35.3713C80.2281 48.7224 73.9357 57.2377 61.3509 60.9171C68.692 62.1787 74.46 65.1222 78.655 69.7478C82.8499 74.3734 84.9473 80.4182 84.9473 87.8822C84.9473 96.7128 82.0633 103.809 76.2953 109.17C70.6322 114.427 63.0288 117.055 53.4854 117.055H0V6.67167H49.238C58.5717 6.67167 66.0702 9.29984 71.7333 14.5562C77.3965 19.8125 80.2281 26.7509 80.2281 35.3713Z" fill="white"/>
<path d="M143.963 3.51786L194.302 117.055H180.931L168.975 90.2475H118.951L106.995 117.055H93.624L143.963 3.51786ZM143.963 33.6367L124.142 78.4208H163.784L143.963 33.6367Z" fill="white"/>
<path d="M209.234 6.67167H221.819V105.228H281.597V117.055H209.234V6.67167Z" fill="white"/>
<path d="M340.447 3.51786L390.786 117.055H377.415L365.459 90.2475H315.435L303.479 117.055H290.108L340.447 3.51786ZM340.447 33.6367L320.626 78.4208H360.268L340.447 33.6367Z" fill="white"/>
<path d="M418.303 105.228H459.204C464.972 105.228 469.534 103.494 472.89 100.024C476.35 96.5551 478.081 91.9821 478.081 86.3053C478.081 80.5233 476.35 75.9503 472.89 72.5862C469.534 69.117 464.972 67.3824 459.204 67.3824H418.303V105.228ZM418.303 18.4984V55.5557H454.956C460.515 55.5557 464.972 53.8736 468.328 50.5096C471.684 47.1455 473.362 42.6251 473.362 36.9482C473.362 31.3765 471.684 26.9086 468.328 23.5445C464.972 20.1805 460.515 18.4984 454.956 18.4984H418.303ZM485.946 35.3713C485.946 48.7224 479.654 57.2377 467.069 60.9171C474.41 62.1787 480.178 65.1222 484.373 69.7478C488.568 74.3734 490.666 80.4182 490.666 87.8822C490.666 96.7128 487.782 103.809 482.014 109.17C476.35 114.427 468.747 117.055 459.204 117.055H405.718V6.67167H454.956C464.29 6.67167 471.788 9.29984 477.452 14.5562C483.115 19.8125 485.946 26.7509 485.946 35.3713Z" fill="white"/>
<path d="M549.681 3.51786L600.021 117.055H586.649L574.694 90.2475H524.669L512.714 117.055H499.342L549.681 3.51786ZM549.681 33.6367L529.86 78.4208H569.502L549.681 33.6367Z" fill="white"/>
<path d="M614.953 3.51786L690.461 87.2514V6.67167H703.046V120.209L627.537 36.3174V117.055H614.953V3.51786Z" fill="white"/>
<path d="M804.799 74.7677C816.964 76.1344 825.721 78.6574 831.07 82.3369C836.628 86.1214 839.407 91.588 839.407 98.7367C839.407 114.821 827.871 122.863 804.799 122.863C781.727 122.863 770.191 113.77 770.191 95.5829H782.776C782.776 105.885 790.117 111.037 804.799 111.037C819.481 111.037 826.822 106.937 826.822 98.7367C826.822 95.0572 825.197 92.3239 821.946 90.5368C818.695 88.7496 812.979 87.4355 804.799 86.5945C793.997 85.4381 786.079 83.0728 781.045 79.4984C775.906 75.819 773.337 70.5627 773.337 63.7294C773.337 48.486 783.824 40.8643 804.799 40.8643C815.181 40.8643 823.099 43.2822 828.553 48.1181C833.692 52.6385 836.261 58.8936 836.261 66.8832H823.676C823.676 57.4218 817.384 52.6911 804.799 52.6911C792.214 52.6911 785.922 56.3705 785.922 63.7294C785.922 67.0935 787.338 69.5639 790.169 71.1409C793.001 72.7178 797.877 73.9267 804.799 74.7677Z" fill="white"/>
<path d="M879.521 10.9032V42.4412H903.118V54.268H879.521V121.286H866.936V54.268H846.486V42.4412H866.936V18.7877L879.521 10.9032Z" fill="white"/>
<path d="M989.663 87.383C989.663 98.3162 986.307 106.989 979.595 113.402C972.883 119.709 963.916 122.863 952.695 122.863C941.473 122.863 932.507 119.709 925.795 113.402C919.083 106.989 915.727 98.3162 915.727 87.383V42.4412H928.312V87.383C928.312 94.7418 930.514 100.524 934.919 104.729C939.323 108.934 945.249 111.037 952.695 111.037C960.141 111.037 966.066 108.934 970.471 104.729C974.875 100.524 977.078 94.7418 977.078 87.383V42.4412H989.663V87.383Z" fill="white"/>
<path d="M1068.33 52.0603C1071.69 56.1603 1074.05 61.1538 1075.41 67.0409V10.9032H1087.99V121.286H1075.41V96.6867C1074.05 102.574 1071.69 107.567 1068.33 111.667C1062.25 119.131 1053.6 122.863 1042.37 122.863C1030.94 122.863 1021.77 119.131 1014.84 111.667C1008.03 104.203 1004.62 94.2688 1004.62 81.8638C1004.62 69.4588 1008.03 59.5243 1014.84 52.0603C1021.77 44.5963 1030.94 40.8643 1042.37 40.8643C1053.6 40.8643 1062.25 44.5963 1068.33 52.0603ZM1025.07 102.994C1030.42 108.356 1037.5 111.037 1046.31 111.037C1055.12 111.037 1062.19 108.356 1067.54 102.994C1072.79 97.738 1075.41 90.6945 1075.41 81.8638C1075.41 73.0331 1072.79 65.9371 1067.54 60.5756C1062.19 55.3193 1055.12 52.6911 1046.31 52.6911C1037.5 52.6911 1030.42 55.3193 1025.07 60.5756C1019.83 65.9371 1017.2 73.0331 1017.2 81.8638C1017.2 90.6945 1019.83 97.738 1025.07 102.994Z" fill="white"/>
<path d="M1109.96 121.286V42.4412H1122.55V121.286H1109.96ZM1122.55 11.8493C1124.12 13.5313 1124.91 15.5813 1124.91 17.9992C1124.91 20.4171 1124.12 22.4671 1122.55 24.1491C1120.87 25.8312 1118.77 26.6722 1116.25 26.6722C1113.74 26.6722 1111.64 25.8312 1109.96 24.1491C1108.39 22.4671 1107.6 20.4171 1107.6 17.9992C1107.6 15.5813 1108.39 13.5313 1109.96 11.8493C1111.64 10.1673 1113.74 9.32625 1116.25 9.32625C1118.77 9.32625 1120.87 10.1673 1122.55 11.8493Z" fill="white"/>
<path d="M1160.26 102.994C1165.61 108.356 1172.69 111.037 1181.49 111.037C1190.3 111.037 1197.38 108.356 1202.73 102.994C1207.98 97.738 1210.6 90.6945 1210.6 81.8638C1210.6 73.0331 1207.98 65.9371 1202.73 60.5756C1197.38 55.3193 1190.3 52.6911 1181.49 52.6911C1172.69 52.6911 1165.61 55.3193 1160.26 60.5756C1155.01 65.9371 1152.39 73.0331 1152.39 81.8638C1152.39 90.6945 1155.01 97.738 1160.26 102.994ZM1151.13 52.0603C1158.79 44.5963 1168.91 40.8643 1181.49 40.8643C1194.08 40.8643 1204.2 44.5963 1211.86 52.0603C1219.41 59.5243 1223.18 69.4588 1223.18 81.8638C1223.18 94.2688 1219.41 104.203 1211.86 111.667C1204.2 119.131 1194.08 122.863 1181.49 122.863C1168.91 122.863 1158.79 119.131 1151.13 111.667C1143.58 104.203 1139.81 94.2688 1139.81 81.8638C1139.81 69.4588 1143.58 59.5243 1151.13 52.0603Z" fill="white"/>
<path d="M1269.45 54.6988C1263.79 54.6988 1259.36 53.0272 1256.15 49.6842C1252.94 46.2781 1251.33 41.7051 1251.33 35.9651V35.2082C1251.33 29.5945 1253.03 25.053 1256.43 21.5838C1259.83 18.1146 1264.17 16.38 1269.45 16.38C1273.86 16.38 1277.51 17.5154 1280.4 19.7861C1283.36 21.9938 1285.03 25.2107 1285.41 29.4368H1278.23C1277.48 24.5168 1274.55 22.0569 1269.45 22.0569C1266.18 22.0569 1263.57 23.2238 1261.62 25.5576C1259.73 27.8914 1258.79 31.1083 1258.79 35.2082V35.8705C1258.79 40.0336 1259.7 43.2504 1261.53 45.5212C1263.41 47.7919 1266.06 48.9273 1269.45 48.9273C1275.06 48.9273 1278.23 46.3096 1278.99 41.0743H1285.78C1285.34 45.4896 1283.64 48.8642 1280.69 51.198C1277.79 53.5318 1274.05 54.6988 1269.45 54.6988ZM1269.27 66.2417C1277.51 66.2417 1284.59 63.3402 1290.5 57.5372C1296.48 51.6711 1299.47 44.2912 1299.47 35.3975C1299.47 26.5668 1296.54 19.2815 1290.69 13.5416C1284.84 7.73858 1277.76 4.83708 1269.45 4.83708C1261.02 4.83708 1253.88 7.73858 1248.03 13.5416C1242.18 19.3446 1239.25 26.693 1239.25 35.5867C1239.25 44.4804 1242.21 51.8288 1248.12 57.6318C1254.1 63.3717 1261.15 66.2417 1269.27 66.2417ZM1269.27 70.2155C1259.64 70.2155 1251.46 66.904 1244.73 60.281C1238.06 53.5949 1234.72 45.3635 1234.72 35.5867C1234.72 25.936 1238.09 17.7361 1244.82 10.987C1251.55 4.23785 1259.76 0.863281 1269.45 0.863281C1279.21 0.863281 1287.39 4.20632 1294 10.8924C1300.67 17.5785 1304 25.7468 1304 35.3975C1304 45.2373 1300.63 53.5003 1293.9 60.1864C1287.23 66.8725 1279.02 70.2155 1269.27 70.2155Z" fill="white"/>
</g>
</svg>
