<svg width="13" height="13" viewBox="0 0 13 13" fill="none" xmlns="http://www.w3.org/2000/svg">
<g clip-path="url(#clip0_20_260)">
<path d="M5.35549 2.03667C5.36059 2.01373 5.61804 1.54725 5.92392 0.996667C6.23235 0.448627 6.4898 0 6.49745 0C6.5051 0 6.7651 0.448627 7.07353 0.996667C7.38196 1.54725 7.63941 2.01373 7.64451 2.03667C7.65131 2.06386 7.64281 2.07235 7.61902 2.06216C7.59863 2.05196 7.49667 2.02647 7.39216 2.00353C7.28765 1.98314 7.09647 1.95255 6.97157 1.93725C6.84667 1.92451 6.63255 1.91176 6.5 1.91176C6.36745 1.91176 6.15333 1.92451 6.02843 1.93725C5.90353 1.95255 5.71235 1.98314 5.60784 2.00353C5.50333 2.02647 5.40137 2.05196 5.38098 2.06216C5.35719 2.07235 5.34869 2.06386 5.35549 2.03667Z" fill="black"/>
<path d="M2.21765 3.04608C2.06216 2.47 1.92961 1.98059 1.92451 1.9551C1.91431 1.91686 1.92196 1.90922 1.9551 1.92196C1.98059 1.92961 2.48784 2.0698 3.08431 2.23039C3.68078 2.39353 4.1702 2.53118 4.17275 2.53627C4.17784 2.54392 4.11922 2.58471 4.04784 2.62804C3.97392 2.67392 3.83118 2.76824 3.73431 2.84216C3.63745 2.91608 3.46412 3.06137 3.35451 3.16333C3.2449 3.26784 3.08176 3.43863 2.9951 3.54314C2.90843 3.64765 2.76824 3.83627 2.68667 3.96118C2.56431 4.14471 2.53373 4.17784 2.51843 4.13961C2.50569 4.11157 2.37059 3.62216 2.21765 3.04608Z" fill="black"/>
<path d="M8.84765 2.52353C8.86804 2.51843 9.3702 2.37824 9.96667 2.2151C10.5631 2.05196 11.0576 1.91686 11.0653 1.91431C11.0729 1.91431 11.078 1.93216 11.0729 1.9551C11.0678 1.98059 10.9378 2.47 10.7824 3.04608C10.6294 3.62216 10.4943 4.11412 10.4816 4.13961C10.4663 4.17784 10.4331 4.14216 10.2929 3.93569C10.1986 3.79804 10.0329 3.58647 9.92843 3.46667C9.82137 3.34686 9.64039 3.16588 9.52569 3.06392C9.41098 2.96196 9.20196 2.80137 9.06431 2.70706C8.91647 2.60765 8.82726 2.53118 8.84765 2.52353Z" fill="black"/>
<path d="M5.63333 2.78098C5.76588 2.75039 5.96216 2.71725 6.06667 2.70451C6.17118 2.69176 6.34706 2.68157 6.45412 2.67902C6.56373 2.67902 6.7651 2.68922 6.9002 2.70451C7.03784 2.71725 7.25451 2.75294 7.37941 2.78353C7.50431 2.81157 7.70569 2.87275 7.82549 2.91863C7.94529 2.96451 8.10588 3.03333 8.18235 3.07157C8.25882 3.1098 8.39137 3.18118 8.47549 3.23216C8.55961 3.28314 8.7151 3.3902 8.81961 3.46922C8.92412 3.54824 9.1102 3.71647 9.23 3.84137C9.3498 3.96373 9.5002 4.13451 9.56392 4.21863C9.6251 4.30275 9.71686 4.44039 9.76784 4.52451C9.81882 4.60863 9.8902 4.74118 9.92843 4.81765C9.96667 4.89412 10.0329 5.04451 10.0737 5.14902C10.1145 5.25353 10.1757 5.4549 10.2088 5.5951C10.2445 5.73529 10.2853 5.99275 10.3031 6.16863C10.3261 6.41588 10.3261 6.56118 10.3031 6.81863C10.2853 6.99961 10.2445 7.26471 10.2088 7.4049C10.1757 7.5451 10.1145 7.74647 10.0737 7.85098C10.0329 7.95549 9.96667 8.10588 9.92843 8.18235C9.8902 8.25882 9.81882 8.39137 9.76784 8.47549C9.71686 8.55961 9.6251 8.69726 9.56392 8.78137C9.5002 8.86549 9.3498 9.03627 9.23 9.15863C9.1102 9.28353 8.92412 9.45177 8.81961 9.53078C8.7151 9.6098 8.55961 9.71686 8.47549 9.76784C8.39137 9.81882 8.25882 9.8902 8.18235 9.92843C8.10588 9.96667 7.95549 10.0329 7.85098 10.0737C7.74647 10.1145 7.5451 10.1757 7.4049 10.2088C7.26471 10.2445 6.99961 10.2853 6.81863 10.3031C6.56118 10.3261 6.41588 10.3261 6.16863 10.3031C5.99275 10.2853 5.73529 10.2445 5.5951 10.2088C5.4549 10.1757 5.25353 10.1145 5.14902 10.0737C5.04451 10.0329 4.89412 9.96667 4.81765 9.92843C4.74118 9.8902 4.60863 9.81882 4.52451 9.76784C4.44039 9.71686 4.2849 9.6098 4.18039 9.53078C4.07588 9.45177 3.8898 9.28353 3.77 9.15863C3.6502 9.03627 3.4998 8.86549 3.43608 8.78137C3.3749 8.69726 3.28314 8.55961 3.23216 8.47549C3.18118 8.39137 3.1098 8.25882 3.07157 8.18235C3.03333 8.10588 2.96706 7.95549 2.92627 7.85098C2.88549 7.74647 2.82431 7.5451 2.79118 7.4049C2.75549 7.26471 2.71471 6.99961 2.69686 6.81863C2.67392 6.56118 2.67392 6.41588 2.69686 6.16863C2.71471 5.99275 2.75549 5.73529 2.79118 5.5951C2.82431 5.4549 2.88549 5.25353 2.92627 5.14902C2.96706 5.04451 3.03333 4.89412 3.07157 4.81765C3.1098 4.74118 3.18118 4.60863 3.23216 4.52451C3.28314 4.44039 3.3749 4.30275 3.43608 4.21863C3.4998 4.13451 3.6502 3.96373 3.77 3.84137C3.8898 3.71647 4.07588 3.54824 4.18039 3.46922C4.2849 3.3902 4.44039 3.28314 4.52451 3.23216C4.60863 3.18118 4.74118 3.1098 4.81765 3.07157C4.89412 3.03333 5.05471 2.96451 5.17451 2.91863C5.29431 2.87275 5.50078 2.81157 5.63333 2.78098Z" fill="black"/>
<path d="M0 6.5C0 6.49235 0.451176 6.23235 1.00176 5.92137C1.5498 5.60784 2.01373 5.35294 2.02647 5.35294C2.04176 5.35294 2.05196 5.36824 2.04941 5.38353C2.04686 5.40137 2.02647 5.50333 2.00353 5.60784C1.98314 5.71235 1.95255 5.90353 1.93725 6.02843C1.92451 6.15333 1.91176 6.36745 1.91176 6.5C1.91176 6.63255 1.92451 6.84667 1.93725 6.97157C1.95255 7.09647 1.98314 7.28765 2.00353 7.39216C2.02647 7.49667 2.04941 7.59863 2.05451 7.61392C2.05961 7.63176 2.04941 7.64706 2.03157 7.64706C2.01627 7.64706 1.5498 7.39216 1.00176 7.07863C0.451176 6.76765 0 6.50765 0 6.5Z" fill="black"/>
<path d="M11.0169 5.71745C10.9914 5.56196 10.9608 5.41412 10.9506 5.39118C10.9378 5.36059 10.9429 5.35039 10.9684 5.35549C10.9914 5.36059 11.4553 5.61804 12.0033 5.92647C12.5514 6.2349 12.9975 6.49235 13 6.5C13 6.50765 12.5412 6.77275 11.9804 7.09137C11.4196 7.41255 10.9557 7.6649 10.9506 7.65216C10.9455 7.64196 10.9608 7.53745 10.9863 7.41765C11.0143 7.29784 11.0475 7.07608 11.0653 6.92059C11.0831 6.7549 11.0908 6.5102 11.0806 6.32157C11.0729 6.14569 11.0424 5.87549 11.0169 5.71745Z" fill="black"/>
<path d="M2.19471 10.0431C2.34765 9.47471 2.48529 8.9649 2.50059 8.90882C2.51588 8.8502 2.53373 8.81706 2.54647 8.83235C2.55922 8.84765 2.62804 8.94961 2.70451 9.06176C2.77843 9.17392 2.92118 9.36255 3.02314 9.48235C3.12255 9.60216 3.30098 9.78314 3.41824 9.88765C3.53549 9.99216 3.71137 10.1375 3.81078 10.2088C3.90765 10.2802 4.03255 10.3669 4.08608 10.4025C4.13961 10.4357 4.17529 10.4714 4.16255 10.4816C4.15235 10.4892 3.64255 10.6294 3.03333 10.7925C2.42412 10.9557 1.92196 11.0857 1.91941 11.0831C1.91941 11.078 2.04176 10.6116 2.19471 10.0431Z" fill="black"/>
<path d="M9.97686 9.4798C10.089 9.34725 10.242 9.14588 10.3184 9.02863C10.3975 8.91392 10.4637 8.82216 10.4688 8.82471C10.4739 8.8298 10.6141 9.33706 10.7798 9.95392C10.948 10.5708 11.0806 11.078 11.0806 11.0831C11.078 11.0857 10.5759 10.9557 9.96667 10.7925C9.35745 10.6294 8.8502 10.4892 8.83745 10.4816C8.82726 10.4714 8.93177 10.3873 9.06686 10.2929C9.20451 10.1986 9.42118 10.0329 9.54608 9.92078C9.67098 9.81118 9.86726 9.61235 9.97686 9.4798Z" fill="black"/>
<path d="M5.90608 11.9804C5.58745 11.4196 5.33 10.9531 5.33 10.9455C5.33255 10.9378 5.36569 10.9378 5.40137 10.948C5.43706 10.9582 5.54157 10.9812 5.63333 11.0016C5.7251 11.0194 5.91882 11.05 6.06667 11.0653C6.22216 11.0831 6.47706 11.0882 6.67843 11.0806C6.86706 11.0704 7.11431 11.0475 7.22647 11.0271C7.33863 11.0067 7.48137 10.9786 7.5451 10.9633C7.60882 10.9455 7.66235 10.9404 7.6649 10.948C7.67 10.9557 7.41255 11.4196 7.09137 11.9804C6.77275 12.5412 6.50765 13 6.5 13C6.49235 13 6.22725 12.5412 5.90608 11.9804Z" fill="black"/>
</g>
<defs>
<clipPath id="clip0_20_260">
<rect width="13" height="13" fill="white"/>
</clipPath>
</defs>
</svg>
