<svg width="43" height="43" viewBox="0 0 43 43" fill="none" xmlns="http://www.w3.org/2000/svg">
<g clip-path="url(#clip0_4290_4896)">
<path d="M-0.0878721 6.88701H2.35625V9.43833H4.01425V6.88701H6.46551V5.30048H4.01425V2.8778H2.35625V5.30048H-0.0878721V6.88701Z" fill="url(#paint0_linear_4290_4896)"/>
<path d="M35.7432 6.88701H38.1873V9.43833H39.8453V6.88701H42.2966V5.30048H39.8453V2.8778H38.1873V5.30048H35.7432V6.88701Z" fill="url(#paint1_linear_4290_4896)"/>
<path d="M38.1873 17.1708H35.7432V15.5842H38.1873V13.1615H39.8453V15.5842H42.2966V17.1708H39.8453V19.7221H38.1873V17.1708Z" fill="url(#paint2_linear_4290_4896)"/>
<path d="M35.7432 27.4545H38.1873V30.0058H39.8453V27.4545H42.2966V25.868H39.8453V23.4453H38.1873V25.868H35.7432V27.4545Z" fill="url(#paint3_linear_4290_4896)"/>
<path d="M2.35623 37.7383H-0.0878906V36.1517H2.35623V33.7291H4.01423V36.1517H6.46549V37.7383H4.01423V40.2896H2.35623V37.7383Z" fill="url(#paint4_linear_4290_4896)"/>
<path d="M8.86995 37.7383H11.3141V40.2896H12.9721V37.7383H15.4233V36.1517H12.9721V33.7291H11.3141V36.1517H8.86995V37.7383Z" fill="url(#paint5_linear_4290_4896)"/>
<path d="M20.2717 37.7383H17.8276V36.1517H20.2717V33.7291H21.9297V36.1517H24.381V37.7383H21.9297V40.2896H20.2717V37.7383Z" fill="url(#paint6_linear_4290_4896)"/>
<path d="M26.7854 37.7383H29.2295V40.2896H30.8875V37.7383H33.3388V36.1517H30.8875V33.7291H29.2295V36.1517H26.7854V37.7383Z" fill="url(#paint7_linear_4290_4896)"/>
<path d="M35.7432 37.7383H38.1873V40.2896H39.8453V37.7383H42.2966V36.1517H39.8453V33.7291H38.1873V36.1517H35.7432V37.7383Z" fill="url(#paint8_linear_4290_4896)"/>
<path d="M29.2295 27.4545H26.7854V25.868H29.2295V23.4453H30.8875V25.868H33.3388V27.4545H30.8875V30.0058H29.2295V27.4545Z" fill="url(#paint9_linear_4290_4896)"/>
<path d="M17.8276 27.4545H20.2717V30.0058H21.9297V27.4545H24.381V25.868H21.9297V23.4453H20.2717V25.868H17.8276V27.4545Z" fill="url(#paint10_linear_4290_4896)"/>
<path d="M11.3141 27.4545H8.86995V25.868H11.3141V23.4453H12.9721V25.868H15.4233V27.4545H12.9721V30.0058H11.3141V27.4545Z" fill="url(#paint11_linear_4290_4896)"/>
<path d="M-0.0878906 27.4545H2.35623V30.0058H4.01423V27.4545H6.46549V25.868H4.01423V23.4453H2.35623V25.868H-0.0878906V27.4545Z" fill="url(#paint12_linear_4290_4896)"/>
<path d="M26.7854 17.1708H29.2295V19.7221H30.8875V17.1708H33.3388V15.5842H30.8875V13.1615H29.2295V15.5842H26.7854V17.1708Z" fill="url(#paint13_linear_4290_4896)"/>
<path d="M20.2717 17.1708H17.8276V15.5842H20.2717V13.1615H21.9297V15.5842H24.381V17.1708H21.9297V19.7221H20.2717V17.1708Z" fill="url(#paint14_linear_4290_4896)"/>
<path d="M8.86995 17.1708H11.3141V19.7221H12.9721V17.1708H15.4233V15.5842H12.9721V13.1615H11.3141V15.5842H8.86995V17.1708Z" fill="url(#paint15_linear_4290_4896)"/>
<path d="M2.35623 17.1708H-0.0878906V15.5842H2.35623V13.1615H4.01423V15.5842H6.46549V17.1708H4.01423V19.7221H2.35623V17.1708Z" fill="url(#paint16_linear_4290_4896)"/>
<path d="M29.2295 6.88701H26.7854V5.30048H29.2295V2.8778H30.8875V5.30048H33.3388V6.88701H30.8875V9.43833H29.2295V6.88701Z" fill="url(#paint17_linear_4290_4896)"/>
<path d="M17.8276 6.88701H20.2717V9.43833H21.9297V6.88701H24.381V5.30048H21.9297V2.8778H20.2717V5.30048H17.8276V6.88701Z" fill="url(#paint18_linear_4290_4896)"/>
<path d="M11.3141 6.88701H8.86995V5.30048H11.3141V2.8778H12.9721V5.30048H15.4233V6.88701H12.9721V9.43833H11.3141V6.88701Z" fill="url(#paint19_linear_4290_4896)"/>
<path d="M-0.0878721 6.88701H2.35625V9.43833H4.01425V6.88701H6.46551V5.30048H4.01425V2.8778H2.35625V5.30048H-0.0878721V6.88701Z" stroke="#1D1D1D" stroke-width="0.719458"/>
<path d="M35.7432 6.88701H38.1873V9.43833H39.8453V6.88701H42.2966V5.30048H39.8453V2.8778H38.1873V5.30048H35.7432V6.88701Z" stroke="#1D1D1D" stroke-width="0.719458"/>
<path d="M38.1873 17.1708H35.7432V15.5842H38.1873V13.1615H39.8453V15.5842H42.2966V17.1708H39.8453V19.7221H38.1873V17.1708Z" stroke="#1D1D1D" stroke-width="0.719458"/>
<path d="M35.7432 27.4545H38.1873V30.0058H39.8453V27.4545H42.2966V25.868H39.8453V23.4453H38.1873V25.868H35.7432V27.4545Z" stroke="#1D1D1D" stroke-width="0.719458"/>
<path d="M2.35623 37.7383H-0.0878906V36.1517H2.35623V33.7291H4.01423V36.1517H6.46549V37.7383H4.01423V40.2896H2.35623V37.7383Z" stroke="#1D1D1D" stroke-width="0.719458"/>
<path d="M8.86995 37.7383H11.3141V40.2896H12.9721V37.7383H15.4233V36.1517H12.9721V33.7291H11.3141V36.1517H8.86995V37.7383Z" stroke="#1D1D1D" stroke-width="0.719458"/>
<path d="M20.2717 37.7383H17.8276V36.1517H20.2717V33.7291H21.9297V36.1517H24.381V37.7383H21.9297V40.2896H20.2717V37.7383Z" stroke="#1D1D1D" stroke-width="0.719458"/>
<path d="M26.7854 37.7383H29.2295V40.2896H30.8875V37.7383H33.3388V36.1517H30.8875V33.7291H29.2295V36.1517H26.7854V37.7383Z" stroke="#1D1D1D" stroke-width="0.719458"/>
<path d="M35.7432 37.7383H38.1873V40.2896H39.8453V37.7383H42.2966V36.1517H39.8453V33.7291H38.1873V36.1517H35.7432V37.7383Z" stroke="#1D1D1D" stroke-width="0.719458"/>
<path d="M29.2295 27.4545H26.7854V25.868H29.2295V23.4453H30.8875V25.868H33.3388V27.4545H30.8875V30.0058H29.2295V27.4545Z" stroke="#1D1D1D" stroke-width="0.719458"/>
<path d="M17.8276 27.4545H20.2717V30.0058H21.9297V27.4545H24.381V25.868H21.9297V23.4453H20.2717V25.868H17.8276V27.4545Z" stroke="#1D1D1D" stroke-width="0.719458"/>
<path d="M11.3141 27.4545H8.86995V25.868H11.3141V23.4453H12.9721V25.868H15.4233V27.4545H12.9721V30.0058H11.3141V27.4545Z" stroke="#1D1D1D" stroke-width="0.719458"/>
<path d="M-0.0878906 27.4545H2.35623V30.0058H4.01423V27.4545H6.46549V25.868H4.01423V23.4453H2.35623V25.868H-0.0878906V27.4545Z" stroke="#1D1D1D" stroke-width="0.719458"/>
<path d="M26.7854 17.1708H29.2295V19.7221H30.8875V17.1708H33.3388V15.5842H30.8875V13.1615H29.2295V15.5842H26.7854V17.1708Z" stroke="#1D1D1D" stroke-width="0.719458"/>
<path d="M20.2717 17.1708H17.8276V15.5842H20.2717V13.1615H21.9297V15.5842H24.381V17.1708H21.9297V19.7221H20.2717V17.1708Z" stroke="#1D1D1D" stroke-width="0.719458"/>
<path d="M8.86995 17.1708H11.3141V19.7221H12.9721V17.1708H15.4233V15.5842H12.9721V13.1615H11.3141V15.5842H8.86995V17.1708Z" stroke="#1D1D1D" stroke-width="0.719458"/>
<path d="M2.35623 17.1708H-0.0878906V15.5842H2.35623V13.1615H4.01423V15.5842H6.46549V17.1708H4.01423V19.7221H2.35623V17.1708Z" stroke="#1D1D1D" stroke-width="0.719458"/>
<path d="M29.2295 6.88701H26.7854V5.30048H29.2295V2.8778H30.8875V5.30048H33.3388V6.88701H30.8875V9.43833H29.2295V6.88701Z" stroke="#1D1D1D" stroke-width="0.719458"/>
<path d="M17.8276 6.88701H20.2717V9.43833H21.9297V6.88701H24.381V5.30048H21.9297V2.8778H20.2717V5.30048H17.8276V6.88701Z" stroke="#1D1D1D" stroke-width="0.719458"/>
<path d="M11.3141 6.88701H8.86995V5.30048H11.3141V2.8778H12.9721V5.30048H15.4233V6.88701H12.9721V9.43833H11.3141V6.88701Z" stroke="#1D1D1D" stroke-width="0.719458"/>
</g>
<defs>
<linearGradient id="paint0_linear_4290_4896" x1="21.1043" y1="2.8778" x2="21.1043" y2="40.2896" gradientUnits="userSpaceOnUse">
<stop stop-color="white"/>
<stop offset="1" stop-color="#424242"/>
</linearGradient>
<linearGradient id="paint1_linear_4290_4896" x1="21.1043" y1="2.8778" x2="21.1043" y2="40.2896" gradientUnits="userSpaceOnUse">
<stop stop-color="white"/>
<stop offset="1" stop-color="#424242"/>
</linearGradient>
<linearGradient id="paint2_linear_4290_4896" x1="21.1043" y1="2.8778" x2="21.1043" y2="40.2896" gradientUnits="userSpaceOnUse">
<stop stop-color="white"/>
<stop offset="1" stop-color="#424242"/>
</linearGradient>
<linearGradient id="paint3_linear_4290_4896" x1="21.1043" y1="2.8778" x2="21.1043" y2="40.2896" gradientUnits="userSpaceOnUse">
<stop stop-color="white"/>
<stop offset="1" stop-color="#424242"/>
</linearGradient>
<linearGradient id="paint4_linear_4290_4896" x1="21.1043" y1="2.8778" x2="21.1043" y2="40.2896" gradientUnits="userSpaceOnUse">
<stop stop-color="white"/>
<stop offset="1" stop-color="#424242"/>
</linearGradient>
<linearGradient id="paint5_linear_4290_4896" x1="21.1043" y1="2.8778" x2="21.1043" y2="40.2896" gradientUnits="userSpaceOnUse">
<stop stop-color="white"/>
<stop offset="1" stop-color="#424242"/>
</linearGradient>
<linearGradient id="paint6_linear_4290_4896" x1="21.1043" y1="2.8778" x2="21.1043" y2="40.2896" gradientUnits="userSpaceOnUse">
<stop stop-color="white"/>
<stop offset="1" stop-color="#424242"/>
</linearGradient>
<linearGradient id="paint7_linear_4290_4896" x1="21.1043" y1="2.8778" x2="21.1043" y2="40.2896" gradientUnits="userSpaceOnUse">
<stop stop-color="white"/>
<stop offset="1" stop-color="#424242"/>
</linearGradient>
<linearGradient id="paint8_linear_4290_4896" x1="21.1043" y1="2.8778" x2="21.1043" y2="40.2896" gradientUnits="userSpaceOnUse">
<stop stop-color="white"/>
<stop offset="1" stop-color="#424242"/>
</linearGradient>
<linearGradient id="paint9_linear_4290_4896" x1="21.1043" y1="2.8778" x2="21.1043" y2="40.2896" gradientUnits="userSpaceOnUse">
<stop stop-color="white"/>
<stop offset="1" stop-color="#424242"/>
</linearGradient>
<linearGradient id="paint10_linear_4290_4896" x1="21.1043" y1="2.8778" x2="21.1043" y2="40.2896" gradientUnits="userSpaceOnUse">
<stop stop-color="white"/>
<stop offset="1" stop-color="#424242"/>
</linearGradient>
<linearGradient id="paint11_linear_4290_4896" x1="21.1043" y1="2.8778" x2="21.1043" y2="40.2896" gradientUnits="userSpaceOnUse">
<stop stop-color="white"/>
<stop offset="1" stop-color="#424242"/>
</linearGradient>
<linearGradient id="paint12_linear_4290_4896" x1="21.1043" y1="2.8778" x2="21.1043" y2="40.2896" gradientUnits="userSpaceOnUse">
<stop stop-color="white"/>
<stop offset="1" stop-color="#424242"/>
</linearGradient>
<linearGradient id="paint13_linear_4290_4896" x1="21.1043" y1="2.8778" x2="21.1043" y2="40.2896" gradientUnits="userSpaceOnUse">
<stop stop-color="white"/>
<stop offset="1" stop-color="#424242"/>
</linearGradient>
<linearGradient id="paint14_linear_4290_4896" x1="21.1043" y1="2.8778" x2="21.1043" y2="40.2896" gradientUnits="userSpaceOnUse">
<stop stop-color="white"/>
<stop offset="1" stop-color="#424242"/>
</linearGradient>
<linearGradient id="paint15_linear_4290_4896" x1="21.1043" y1="2.8778" x2="21.1043" y2="40.2896" gradientUnits="userSpaceOnUse">
<stop stop-color="white"/>
<stop offset="1" stop-color="#424242"/>
</linearGradient>
<linearGradient id="paint16_linear_4290_4896" x1="21.1043" y1="2.8778" x2="21.1043" y2="40.2896" gradientUnits="userSpaceOnUse">
<stop stop-color="white"/>
<stop offset="1" stop-color="#424242"/>
</linearGradient>
<linearGradient id="paint17_linear_4290_4896" x1="21.1043" y1="2.8778" x2="21.1043" y2="40.2896" gradientUnits="userSpaceOnUse">
<stop stop-color="white"/>
<stop offset="1" stop-color="#424242"/>
</linearGradient>
<linearGradient id="paint18_linear_4290_4896" x1="21.1043" y1="2.8778" x2="21.1043" y2="40.2896" gradientUnits="userSpaceOnUse">
<stop stop-color="white"/>
<stop offset="1" stop-color="#424242"/>
</linearGradient>
<linearGradient id="paint19_linear_4290_4896" x1="21.1043" y1="2.8778" x2="21.1043" y2="40.2896" gradientUnits="userSpaceOnUse">
<stop stop-color="white"/>
<stop offset="1" stop-color="#424242"/>
</linearGradient>
<clipPath id="clip0_4290_4896">
<rect width="42.2082" height="42.2082" fill="white"/>
</clipPath>
</defs>
</svg>
