<svg width="43" height="43" viewBox="0 0 43 43" fill="none" xmlns="http://www.w3.org/2000/svg">
<path d="M21.1045 0.46875C21.5433 0.468981 22.1011 0.846713 22.7061 1.89355C23.2913 2.90625 23.8339 4.40298 24.2959 6.29297C25.2182 10.066 25.7939 15.3031 25.7939 21.1045C25.7939 26.9059 25.2182 32.1431 24.2959 35.916C23.8339 37.806 23.2913 39.3028 22.7061 40.3154C22.1011 41.362 21.5433 41.739 21.1045 41.7393C20.6656 41.7393 20.1071 41.3624 19.502 40.3154C18.9167 39.3028 18.3741 37.806 17.9121 35.916C16.9898 32.1431 16.4141 26.9059 16.4141 21.1045C16.4141 15.3031 16.9898 10.066 17.9121 6.29297C18.3741 4.40302 18.9168 2.90625 19.502 1.89355C20.1071 0.846393 20.6656 0.46875 21.1045 0.46875Z" stroke="url(#paint0_linear_4290_4900)" stroke-width="0.93796"/>
<path d="M0.46875 21.1037C0.46898 20.6648 0.846712 20.1071 1.89355 19.5021C2.90625 18.9169 4.40298 18.3743 6.29297 17.9123C10.066 16.99 15.3031 16.4142 21.1045 16.4142C26.9059 16.4143 32.1431 16.99 35.916 17.9123C37.806 18.3743 39.3028 18.9169 40.3154 19.5021C41.362 20.1071 41.739 20.6649 41.7393 21.1037C41.7393 21.5426 41.3624 22.1011 40.3154 22.7062C39.3028 23.2914 37.806 23.834 35.916 24.2961C32.1431 25.2183 26.9059 25.7941 21.1045 25.7941C15.3031 25.7941 10.066 25.2183 6.29297 24.2961C4.40302 23.8341 2.90625 23.2914 1.89355 22.7062C0.846393 22.101 0.46875 21.5426 0.46875 21.1037Z" stroke="url(#paint1_linear_4290_4900)" stroke-width="0.93796"/>
<path d="M6.51261 6.51249C6.83818 6.18719 7.51531 6.05472 8.68917 6.35643C9.82796 6.64916 11.2783 7.31409 12.9484 8.31616C16.2825 10.3166 20.4012 13.6035 24.5031 17.7054C28.6048 21.8071 31.8911 25.9253 33.8916 29.2594C34.8937 30.9296 35.5593 32.3804 35.852 33.5193C36.1536 34.6929 36.0205 35.3696 35.6953 35.6951C35.3698 36.0206 34.6927 36.1543 33.5187 35.8526C32.3799 35.5599 30.9291 34.8943 29.2588 33.8922C25.9248 31.8917 21.8065 28.6054 17.7048 24.5037C13.6029 20.4018 10.3161 16.2831 8.31559 12.949C7.31354 11.2789 6.6486 9.82852 6.35586 8.68974C6.05408 7.51559 6.18713 6.83796 6.51261 6.51249Z" stroke="url(#paint2_linear_4290_4900)" stroke-width="0.93796"/>
<path d="M6.51261 35.6953C6.18731 35.3697 6.05485 34.6925 6.35655 33.5187C6.64928 32.3799 7.31421 30.9296 8.31629 29.2595C10.3168 25.9253 13.6036 21.8067 17.7055 17.7048C21.8072 13.6031 25.9254 10.3167 29.2595 8.31627C30.9297 7.31412 32.3806 6.64855 33.5194 6.35584C34.693 6.05429 35.3697 6.18734 35.6953 6.5126C36.0207 6.83804 36.1544 7.5152 35.8527 8.68916C35.56 9.82799 34.8944 11.2788 33.8923 12.9491C31.8918 16.2831 28.6055 20.4013 24.5038 24.5031C20.4019 28.605 16.2832 31.8918 12.9491 33.8923C11.279 34.8943 9.82865 35.5593 8.68986 35.852C7.51571 36.1538 6.83809 36.0207 6.51261 35.6953Z" stroke="url(#paint3_linear_4290_4900)" stroke-width="0.93796"/>
<defs>
<linearGradient id="paint0_linear_4290_4900" x1="21.1041" y1="0" x2="21.1041" y2="42.2082" gradientUnits="userSpaceOnUse">
<stop stop-color="white"/>
<stop offset="1" stop-color="#494949"/>
</linearGradient>
<linearGradient id="paint1_linear_4290_4900" x1="6.15178e-08" y1="21.1041" x2="42.2082" y2="21.1041" gradientUnits="userSpaceOnUse">
<stop stop-color="white"/>
<stop offset="1" stop-color="#494949"/>
</linearGradient>
<linearGradient id="paint2_linear_4290_4900" x1="6.18091" y1="6.18128" x2="36.0266" y2="36.027" gradientUnits="userSpaceOnUse">
<stop stop-color="white"/>
<stop offset="1" stop-color="#494949"/>
</linearGradient>
<linearGradient id="paint3_linear_4290_4900" x1="36.0271" y1="6.18127" x2="6.1814" y2="36.027" gradientUnits="userSpaceOnUse">
<stop stop-color="white"/>
<stop offset="1" stop-color="#494949"/>
</linearGradient>
</defs>
</svg>
