<svg width="41" height="36" viewBox="0 0 41 36" fill="none" xmlns="http://www.w3.org/2000/svg">
<path d="M20.1445 0.479492C25.6825 0.479492 30.6818 0.988387 34.2832 1.80469C36.0878 2.21373 37.5158 2.69497 38.4805 3.21191C38.9629 3.47048 39.3066 3.72655 39.5244 3.96777C39.7395 4.20616 39.8096 4.4044 39.8096 4.56641C39.8095 4.72843 39.7396 4.92666 39.5244 5.16504C39.3066 5.4063 38.963 5.66229 38.4805 5.9209C37.5158 6.43784 36.0878 6.91811 34.2832 7.32715C30.6818 8.14346 25.6826 8.65234 20.1445 8.65234C14.6065 8.65233 9.60725 8.14346 6.00586 7.32715C4.20147 6.91813 2.77412 6.4378 1.80957 5.9209C1.32703 5.6623 0.983488 5.4063 0.765625 5.16504C0.550413 4.92665 0.479565 4.72843 0.479492 4.56641C0.479492 4.40436 0.55036 4.20625 0.765625 3.96777C0.983449 3.72649 1.327 3.47054 1.80957 3.21191C2.77414 2.695 4.20142 2.21371 6.00586 1.80469C9.60725 0.988373 14.6065 0.479509 20.1445 0.479492Z" stroke="url(#paint0_linear_4290_4914)" stroke-width="0.959277"/>
<path d="M20.1445 5.8515C25.6825 5.8515 30.6818 6.3604 34.2832 7.1767C36.0878 7.58574 37.5158 8.06698 38.4805 8.58393C38.9629 8.84249 39.3066 9.09856 39.5244 9.33978C39.7395 9.57817 39.8096 9.77641 39.8096 9.93842C39.8095 10.1004 39.7396 10.2987 39.5244 10.5371C39.3066 10.7783 38.963 11.0343 38.4805 11.2929C37.5158 11.8099 36.0878 12.2901 34.2832 12.6992C30.6818 13.5155 25.6826 14.0244 20.1445 14.0244C14.6065 14.0243 9.60725 13.5155 6.00586 12.6992C4.20147 12.2901 2.77412 11.8098 1.80957 11.2929C1.32703 11.0343 0.983488 10.7783 0.765625 10.5371C0.550413 10.2987 0.479565 10.1004 0.479492 9.93842C0.479492 9.77637 0.55036 9.57826 0.765625 9.33978C0.983449 9.0985 1.327 8.84255 1.80957 8.58393C2.77414 8.06701 4.20142 7.58572 6.00586 7.1767C9.60725 6.36038 14.6065 5.85152 20.1445 5.8515Z" stroke="url(#paint1_linear_4290_4914)" stroke-width="0.959277"/>
<path d="M20.1445 11.2234C25.6825 11.2234 30.6818 11.7323 34.2832 12.5486C36.0878 12.9577 37.5158 13.4389 38.4805 13.9559C38.9629 14.2144 39.3066 14.4705 39.5244 14.7117C39.7395 14.9501 39.8096 15.1484 39.8096 15.3104C39.8095 15.4724 39.7396 15.6706 39.5244 15.909C39.3066 16.1502 38.963 16.4062 38.4805 16.6648C37.5158 17.1818 36.0878 17.6621 34.2832 18.0711C30.6818 18.8874 25.6826 19.3963 20.1445 19.3963C14.6065 19.3963 9.60725 18.8874 6.00586 18.0711C4.20147 17.6621 2.77412 17.1817 1.80957 16.6648C1.32703 16.4063 0.983488 16.1502 0.765625 15.909C0.550413 15.6706 0.479565 15.4724 0.479492 15.3104C0.479492 15.1483 0.55036 14.9502 0.765625 14.7117C0.983449 14.4704 1.327 14.2145 1.80957 13.9559C2.77414 13.4389 4.20142 12.9577 6.00586 12.5486C9.60725 11.7323 14.6065 11.2235 20.1445 11.2234Z" stroke="url(#paint2_linear_4290_4914)" stroke-width="0.959277"/>
<path d="M20.1445 16.5954C25.6825 16.5954 30.6818 17.1043 34.2832 17.9206C36.0878 18.3296 37.5158 18.8109 38.4805 19.3278C38.9629 19.5864 39.3066 19.8425 39.5244 20.0837C39.7395 20.3221 39.8096 20.5203 39.8096 20.6823C39.8095 20.8443 39.7396 21.0426 39.5244 21.281C39.3066 21.5222 38.963 21.7782 38.4805 22.0368C37.5158 22.5538 36.0878 23.034 34.2832 23.4431C30.6818 24.2594 25.6826 24.7683 20.1445 24.7683C14.6065 24.7682 9.60725 24.2594 6.00586 23.4431C4.20147 23.034 2.77412 22.5537 1.80957 22.0368C1.32703 21.7782 0.983488 21.5222 0.765625 21.281C0.550413 21.0426 0.479565 20.8443 0.479492 20.6823C0.479492 20.5203 0.55036 20.3222 0.765625 20.0837C0.983449 19.8424 1.327 19.5865 1.80957 19.3278C2.77414 18.8109 4.20142 18.3296 6.00586 17.9206C9.60725 17.1043 14.6065 16.5954 20.1445 16.5954Z" stroke="url(#paint3_linear_4290_4914)" stroke-width="0.959277"/>
<path d="M20.1445 21.9673C25.6825 21.9673 30.6818 22.4762 34.2832 23.2925C36.0878 23.7015 37.5158 24.1828 38.4805 24.6997C38.9629 24.9583 39.3066 25.2144 39.5244 25.4556C39.7395 25.694 39.8096 25.8922 39.8096 26.0542C39.8095 26.2162 39.7396 26.4145 39.5244 26.6529C39.3066 26.8941 38.963 27.1501 38.4805 27.4087C37.5158 27.9257 36.0878 28.4059 34.2832 28.815C30.6818 29.6313 25.6826 30.1402 20.1445 30.1402C14.6065 30.1401 9.60725 29.6313 6.00586 28.815C4.20147 28.4059 2.77412 27.9256 1.80957 27.4087C1.32703 27.1501 0.983488 26.8941 0.765625 26.6529C0.550413 26.4145 0.479565 26.2162 0.479492 26.0542C0.479492 25.8922 0.55036 25.6941 0.765625 25.4556C0.983449 25.2143 1.327 24.9584 1.80957 24.6997C2.77414 24.1828 4.20142 23.7015 6.00586 23.2925C9.60725 22.4762 14.6065 21.9673 20.1445 21.9673Z" stroke="url(#paint4_linear_4290_4914)" stroke-width="0.959277"/>
<path d="M20.1445 27.3393C25.6825 27.3393 30.6818 27.8482 34.2832 28.6645C36.0878 29.0735 37.5158 29.5548 38.4805 30.0717C38.9629 30.3303 39.3066 30.5864 39.5244 30.8276C39.7395 31.066 39.8096 31.2642 39.8096 31.4262C39.8095 31.5882 39.7396 31.7865 39.5244 32.0249C39.3066 32.2661 38.963 32.5221 38.4805 32.7807C37.5158 33.2977 36.0878 33.7779 34.2832 34.187C30.6818 35.0033 25.6826 35.5122 20.1445 35.5122C14.6065 35.5121 9.60725 35.0033 6.00586 34.187C4.20147 33.7779 2.77412 33.2976 1.80957 32.7807C1.32703 32.5221 0.983488 32.2661 0.765625 32.0249C0.550413 31.7865 0.479565 31.5882 0.479492 31.4262C0.479492 31.2642 0.55036 31.0661 0.765625 30.8276C0.983449 30.5863 1.327 30.3304 1.80957 30.0717C2.77414 29.5548 4.20142 29.0735 6.00586 28.6645C9.60725 27.8482 14.6065 27.3393 20.1445 27.3393Z" stroke="url(#paint5_linear_4290_4914)" stroke-width="0.959277"/>
<defs>
<linearGradient id="paint0_linear_4290_4914" x1="20.1448" y1="0" x2="20.1448" y2="9.13231" gradientUnits="userSpaceOnUse">
<stop stop-color="white"/>
<stop offset="1" stop-color="#3C3C3C"/>
</linearGradient>
<linearGradient id="paint1_linear_4290_4914" x1="20.1448" y1="5.37201" x2="20.1448" y2="14.5043" gradientUnits="userSpaceOnUse">
<stop stop-color="white"/>
<stop offset="1" stop-color="#3C3C3C"/>
</linearGradient>
<linearGradient id="paint2_linear_4290_4914" x1="20.1448" y1="10.7439" x2="20.1448" y2="19.8763" gradientUnits="userSpaceOnUse">
<stop stop-color="white"/>
<stop offset="1" stop-color="#3C3C3C"/>
</linearGradient>
<linearGradient id="paint3_linear_4290_4914" x1="20.1448" y1="16.1159" x2="20.1448" y2="25.2482" gradientUnits="userSpaceOnUse">
<stop stop-color="white"/>
<stop offset="1" stop-color="#3C3C3C"/>
</linearGradient>
<linearGradient id="paint4_linear_4290_4914" x1="20.1448" y1="21.4878" x2="20.1448" y2="30.6201" gradientUnits="userSpaceOnUse">
<stop stop-color="white"/>
<stop offset="1" stop-color="#3C3C3C"/>
</linearGradient>
<linearGradient id="paint5_linear_4290_4914" x1="20.1448" y1="26.8598" x2="20.1448" y2="35.9921" gradientUnits="userSpaceOnUse">
<stop stop-color="white"/>
<stop offset="1" stop-color="#3C3C3C"/>
</linearGradient>
</defs>
</svg>
